<?xml version="1.0" standalone="no"?>
<!DOCTYPE svg PUBLIC "-//W3C//DTD SVG 20010904//EN"
 "http://www.w3.org/TR/2001/REC-SVG-20010904/DTD/svg10.dtd">
<svg version="1.0" xmlns="http://www.w3.org/2000/svg"
 width="109.000000pt" height="64.000000pt" viewBox="0 0 109.000000 64.000000"
 preserveAspectRatio="xMidYMid meet">

<g transform="translate(0.000000,64.000000) scale(0.100000,-0.100000)"
fill="#000000" stroke="none">
<path d="M235 611 c-84 -22 -158 -79 -197 -154 -34 -63 -33 -193 2 -261 72
-141 245 -197 388 -125 34 17 62 35 62 40 0 20 -30 20 -59 0 -103 -74 -271
-36 -346 77 -136 206 90 473 315 371 25 -11 54 -29 66 -40 18 -16 23 -17 32
-6 9 11 7 19 -11 35 -54 50 -180 82 -252 63z"/>
</g>
</svg>
